<svg version="1.1" xmlns="http://www.w3.org/2000/svg" xmlns:xlink="http://www.w3.org/1999/xlink" width="32" height="32" viewBox="0,0,256,256"><g fill="#f24f86" fill-rule="evenodd" stroke="none" stroke-width="0.26458" stroke-linecap="butt" stroke-linejoin="miter" stroke-miterlimit="10" stroke-dasharray="" stroke-dashoffset="0" font-family="none" font-weight="none" font-size="none" text-anchor="none" style="mix-blend-mode: normal"><g transform="translate(0,0) scale(30.23622,30.23622)"><g id="layer1"><path d="M4.23333,0c-1.12275,0 -2.19951,0.44601 -2.99342,1.23991c-0.7939,0.7939 -1.23991,1.87067 -1.23991,2.99342c0,1.12275 0.44601,2.19951 1.23991,2.99342c0.7939,0.7939 1.87067,1.23991 2.99342,1.23991c1.12275,0 2.19951,-0.44601 2.99342,-1.23991c0.7939,-0.7939 1.23991,-1.87067 1.23991,-2.99342c0,-1.12275 -0.44601,-2.19951 -1.23991,-2.99342c-0.7939,-0.7939 -1.87067,-1.23991 -2.99342,-1.23991zM2.92334,2.36471c0.13935,0.00056 0.27812,0.05454 0.38447,0.16175l0.92863,0.93586l0.93586,-0.92811c0.21441,-0.2127 0.55831,-0.2113 0.77101,0.0031c0.2127,0.21441 0.2113,0.55831 -0.0031,0.77101l-0.93586,0.92811l0.92811,0.93586c0.2127,0.21441 0.21182,0.55831 -0.00258,0.77101c-0.21441,0.2127 -0.55831,0.2113 -0.77101,-0.0031l-0.92863,-0.93586l-0.93586,0.92863c-0.21441,0.2127 -0.55831,0.2113 -0.77101,-0.0031c-0.2127,-0.21441 -0.2113,-0.55831 0.0031,-0.77101l0.93586,-0.92863l-0.92811,-0.93586c-0.2127,-0.21441 -0.21182,-0.55831 0.00258,-0.77101c0.1072,-0.10635 0.24719,-0.1592 0.38654,-0.15865z" id="mdi-close-normal"></path></g></g></g></svg>